<?xml version="1.0" standalone="no"?>
<!DOCTYPE svg PUBLIC "-//W3C//DTD SVG 20010904//EN"
 "http://www.w3.org/TR/2001/REC-SVG-20010904/DTD/svg10.dtd">
<svg version="1.0" xmlns="http://www.w3.org/2000/svg"
 width="40.000000pt" height="40.000000pt" viewBox="0 0 192.000000 192.000000"
 preserveAspectRatio="xMidYMid meet">

<g transform="translate(0.000000,192.000000) scale(0.100000,-0.100000)"
fill="#000000" stroke="none">
<path d="M793 1906 c-204 -39 -383 -136 -524 -283 -120 -126 -203 -277 -246
-449 -24 -95 -24 -333 0 -428 89 -356 349 -620 706 -718 110 -31 352 -31 462
0 357 98 617 362 706 718 24 95 24 333 0 428 -89 356 -353 625 -706 717 -99
27 -298 34 -398 15z m-418 -736 c0 -18 -6 -26 -23 -28 -24 -4 -38 18 -28 44 3
9 15 14 28 12 17 -2 23 -10 23 -28z m1115 -155 c0 -178 -1 -185 -20 -185 -19
0 -20 7 -20 185 0 178 1 185 20 185 19 0 20 -7 20 -185z m-1190 80 c0 -2 -30
-50 -66 -107 -36 -56 -68 -108 -71 -115 -4 -10 11 -13 66 -13 56 0 71 -3 71
-15 0 -12 -18 -15 -105 -15 -123 0 -121 -16 -19 142 l64 98 -70 0 c-56 0 -70
3 -70 15 0 12 18 15 100 15 55 0 100 -2 100 -5z m70 -130 c0 -128 -1 -135 -20
-135 -19 0 -20 7 -20 135 0 128 1 135 20 135 19 0 20 -7 20 -135z m266 120
c25 -19 34 -19 34 0 0 8 9 15 20 15 19 0 20 -7 20 -130 0 -91 -4 -141 -14
-165 -20 -47 -69 -75 -129 -75 -51 0 -78 10 -114 43 -48 43 -15 51 44 11 31
-21 46 -25 82 -21 50 6 76 28 86 75 l7 33 -34 -21 c-92 -56 -211 9 -211 115 0
51 21 88 66 115 38 24 115 26 143 5z m337 1 c23 -13 27 -13 27 0 0 8 10 14 26
14 l27 0 -5 -137 c-5 -153 -17 -192 -68 -218 -33 -17 -106 -20 -144 -5 -28 10
-66 45 -66 60 0 17 36 11 55 -10 24 -26 75 -35 119 -20 38 12 56 35 56 69 0
25 -8 26 -34 6 -11 -8 -38 -15 -61 -15 -104 0 -176 102 -131 188 16 30 53 66
76 75 29 11 95 7 123 -7z m333 -1 c25 -19 34 -19 34 0 0 8 9 15 20 15 19 0 20
-7 20 -135 0 -128 -1 -135 -20 -135 -11 0 -20 7 -20 15 0 14 -3 14 -30 0 -37
-19 -103 -19 -141 0 -88 46 -92 183 -6 235 38 24 115 26 143 5z m445 0 c40
-21 69 -71 69 -120 0 -79 -59 -135 -141 -135 -102 0 -170 106 -124 194 36 68
127 96 196 61z"/>
<path d="M525 1059 c-59 -34 -74 -115 -31 -166 20 -23 32 -28 70 -28 36 0 51
6 73 28 39 38 40 105 2 142 -29 29 -85 41 -114 24z"/>
<path d="M863 1060 c-63 -26 -78 -120 -28 -169 38 -38 107 -37 141 2 32 38 33
105 2 142 -25 28 -79 40 -115 25z"/>
<path d="M1204 1060 c-62 -25 -82 -107 -39 -158 33 -39 74 -48 118 -27 66 31
77 107 23 161 -34 34 -61 41 -102 24z"/>
<path d="M1645 1061 c-62 -26 -82 -116 -36 -165 64 -68 170 -25 171 68 0 30
-7 45 -34 72 -34 34 -61 41 -101 25z"/>
</g>
</svg>
