<?xml version="1.0" standalone="no"?>
<!DOCTYPE svg PUBLIC "-//W3C//DTD SVG 20010904//EN"
 "http://www.w3.org/TR/2001/REC-SVG-20010904/DTD/svg10.dtd">
<svg version="1.0" xmlns="http://www.w3.org/2000/svg"
 width="40.000000pt" height="40.000000pt" viewBox="0 0 496.000000 397.000000"
 preserveAspectRatio="xMidYMid meet">

<g transform="translate(0.000000,397.000000) scale(0.100000,-0.100000)"
fill="#000000" stroke="none">
<path d="M0 1985 l0 -1985 2480 0 2480 0 0 1985 0 1985 -2480 0 -2480 0 0
-1985z m3540 1015 c93 -15 180 -60 216 -112 26 -37 29 -51 32 -133 12 -311
-192 -533 -743 -810 -173 -87 -270 -129 -610 -261 -32 -13 -61 -21 -63 -19 -5
5 10 23 316 368 223 253 233 270 170 304 -47 26 -307 23 -603 -7 -135 -13
-304 -23 -410 -24 -168 -1 -183 0 -221 21 -81 43 -136 133 -166 267 -13 58
-17 327 -6 367 l8 27 38 -19 c21 -11 71 -23 112 -29 146 -19 308 -13 990 35
468 33 435 31 670 33 113 1 234 -3 270 -8z m-941 -737 c-24 -26 -405 -455
-476 -536 -47 -53 -46 -92 5 -115 52 -24 289 -21 587 7 346 33 526 38 597 17
102 -29 160 -99 199 -241 19 -67 22 -106 23 -247 0 -92 -2 -169 -5 -173 -4 -3
-34 3 -68 15 -123 41 -338 38 -1076 -15 -801 -58 -970 -53 -1107 34 -64 41
-88 94 -88 199 0 102 22 200 63 277 38 71 161 199 267 277 198 145 528 313
875 445 72 28 148 57 170 65 57 23 62 21 34 -9z"/>
</g>
</svg>
